<?xml version="1.0" encoding="UTF-8"?>
<svg id="_레이어_2" data-name="레이어 2" xmlns="http://www.w3.org/2000/svg" viewBox="0 0 44.1 22.88">
  <defs>
    <style>
      .cls-1 {
        fill: #fff;
        stroke-width: 0px;
      }
    </style>
  </defs>
  <g id="_레이어_1-2" data-name="레이어 1">
    <path class="cls-1" d="M40.1,7.44h-17.95C20.52,3.1,16.34,0,11.44,0,5.13,0,0,5.13,0,11.44s5.13,11.44,11.44,11.44c4.9,0,9.08-3.1,10.71-7.44h5.47v3.13c0,1.38,1.12,2.5,2.5,2.5s2.5-1.12,2.5-2.5v-3.13h3.04v3.13c0,1.38,1.12,2.5,2.5,2.5s2.5-1.12,2.5-2.5v-3.19c1.94-.28,3.44-1.93,3.44-3.94,0-2.21-1.79-4-4-4ZM11.44,15.88c-2.45,0-4.44-1.99-4.44-4.44s1.99-4.44,4.44-4.44,4.44,1.99,4.44,4.44-1.99,4.44-4.44,4.44Z"/>
  </g>
</svg>