<?xml version="1.0" encoding="UTF-8"?>
<svg id="_레이어_2" data-name="레이어 2" xmlns="http://www.w3.org/2000/svg" xmlns:xlink="http://www.w3.org/1999/xlink" viewBox="0 0 299.35 255.77">
  <defs>
    <style>
      .cls-1 {
        fill: url(#maingradient);
      }

      .cls-1, .cls-2, .cls-3 {
        stroke-width: 0px;
      }

      .cls-2 {
        fill: #e6e6e6;
      }

      .cls-3 {
        fill: #fff;
      }

      .cls-4 {
        opacity: .3;
      }
    </style>
    <linearGradient id="maingradient" x1="56.34" y1="91.1" x2="243.01" y2="91.1" gradientUnits="userSpaceOnUse">
      <stop offset="0" stop-color="#f60"/>
      <stop offset="1" stop-color="#63c"/>
    </linearGradient>
  </defs>
  <g id="_레이어_1-2" data-name="레이어 1">
    <g>
      <g>
        <path class="cls-3" d="M7.09,254.91H.74c-.3,0-.56-.22-.61-.51-.06-.38-.13-.74-.13-1.11-.01-8.67,0-17.35-.01-26.02,0-4.12,1.42-7.56,4.75-10.09,3.84-2.92,8.97-3.17,13.09-.67.5.31.99.64,1.54,1.02.2.14.46.14.67.01.34-.21.68-.42,1.02-.64,3.89-2.54,7.96-2.88,12.08-.7,4.12,2.18,6.23,5.73,6.3,10.37.09,5.83.02,11.67.02,17.51,0,3.34,0,6.67,0,10.15,0,.34-.28.62-.62.62h-6.35c-.34,0-.61-.27-.61-.61v-2.02c0-7.89,0-15.77,0-23.66,0-.86.02-1.75-.14-2.59-.4-2.09-2.21-3.5-4.23-3.39-2.08.11-3.66,1.63-3.88,3.77-.07.62-.03,1.26-.03,1.89,0,7.96,0,15.93,0,23.89v2.11c0,.34-.28.62-.62.62h-6.42c-.34,0-.61-.27-.61-.61v-1.98c0-7.96,0-15.93,0-23.89,0-.79.03-1.59-.1-2.36-.35-2.07-2.13-3.5-4.18-3.43-1.98.07-3.57,1.48-3.87,3.5-.1.7-.07,1.42-.07,2.12,0,7.96,0,15.93,0,23.89v2.21c0,.34-.28.61-.61.61Z"/>
        <path class="cls-3" d="M109.39,245c1.3,3.1,2.54,6.07,3.85,9.19.13.3-.09.64-.42.64h-7.08c-.18,0-.35-.11-.42-.27-1.04-2.35-2.1-4.74-3.18-7.19-.07-.17-.24-.28-.42-.28h-8.38c-.25,0-.46.21-.46.46v6.82c0,.25-.21.46-.46.46h-6.65c-.25,0-.46-.21-.46-.46v-38.71c.17-.12.29-.28.41-.28,5.36-.03,10.72-.22,16.07-.02,6.46.24,12.04,4.73,14.08,10.9,2.04,6.16.08,12.92-4.96,17.09-.41.34-.84.67-1.37,1.09-.16.13-.22.35-.14.54ZM93,238.77c0,.25.2.46.46.46,3.28.03,6.5.41,9.67-.33,3.41-.79,5.87-4.16,5.87-7.69,0-3.65-2.55-7.31-6.04-7.75-3.08-.39-6.24-.11-9.49-.09-.25,0-.46.21-.46.46v14.94Z"/>
        <path class="cls-3" d="M226.45,235.58c-.15,10.57-8.44,20.27-20.48,20.19-12.5-.08-20.55-10.43-20.34-20.83.23-11.28,9.53-20.25,20.86-20.1,11.06.14,20.13,9.56,19.96,20.74ZM205.92,247.97c5.82.43,12.82-4.56,12.92-12.54.09-6.99-5.58-12.75-12.66-12.9-6.94-.15-12.84,5.65-12.88,12.64-.04,7.12,5.54,12.77,12.62,12.8Z"/>
        <path class="cls-3" d="M77.4,254.91h-6.67c-.22,0-.39-.18-.39-.39v-7.1c0-.21-.17-.39-.39-.39-5.16-.12-10.14-.04-15.33-.05-.22,0-.39.17-.39.39v7.04c0,.22-.18.39-.39.39h-6.85c-.19,0-.35-.13-.38-.32-.06-.31-.13-.63-.13-.96-.01-7.49-.09-14.97.01-22.46.1-6.99,4.16-12.51,10.46-14.74,10.06-3.56,20.64,3.98,20.92,14.66.2,7.74.01,15.5,0,23.25,0,.11-.04.21-.11.4-.05.16-.2.27-.37.27ZM70.25,238.71c0-2.46.05-4.8,0-7.12-.11-5.85-6.03-9.98-11.43-7.72-2.4,1.01-4.18,3.07-4.5,5.76-.35,2.95-.09,5.97-.07,9.08,0,.21.17.39.39.39h15.21c.22,0,.39-.18.39-.39Z"/>
        <path class="cls-3" d="M122.11,254.39v-6.65c0-.28.22-.52.5-.53.55-.03,1.12-.07,1.69-.08,4.73,0,9.45,0,14.18-.01.78,0,1.59,0,2.34-.18,1.49-.37,2.67-1.89,2.78-3.47.12-1.74-.59-3.13-2.14-3.88-.81-.39-1.81-.55-2.72-.58-2.44-.08-4.88,0-7.32-.03-5.76-.07-10.66-4.33-11.46-9.95-.83-5.84,2.59-11.41,8.11-13.1,1.12-.34,2.31-.57,3.48-.58,5.59-.06,11.18-.03,16.77-.02.25,0,.49.03.77.06s.47.26.47.53v6.67c0,.28-.22.52-.51.53-.57.03-1.14.06-1.72.07-4.96,0-9.92,0-14.88,0-3.21.01-5.01,1.5-4.97,4.05.05,2.53,1.91,4.06,5.04,4.08,2.44.02,4.88-.03,7.32.01,5.77.1,10.65,4.45,11.33,10.07.75,6.13-2.92,11.68-8.71,13.11-.91.23-1.86.43-2.79.44-5.51.04-11.03.02-16.54.01-.19,0-.37-.03-.59-.07-.25-.05-.44-.27-.44-.53Z"/>
        <path class="cls-3" d="M268.47,254.36v-38.44c0-.24.17-.45.41-.5.22-.04.41-.08.6-.08,1.89-.01,3.78,0,5.92,0,.28,0,.51.23.51.51v19.14c.18.06.18.06.36.12,4.79-6.42,9.58-12.83,14.38-19.27.2-.27.52-.43.86-.43h7.11c.43,0,.67.49.41.83-4.02,5.38-7.91,10.58-11.81,15.8,4.03,7.4,8,14.68,12.05,22.12.19.34-.06.77-.45.77h-7.31c-.31,0-.59-.17-.74-.44-2.63-4.82-5.26-9.65-8.06-14.78-.23-.42-.82-.47-1.11-.09-.93,1.2-1.78,2.29-2.61,3.39-.92,1.22-1.82,2.45-2.83,3.81-.16.22-.25.48-.25.75v6.8c0,.28-.23.51-.51.51h-6.43c-.28,0-.51-.23-.51-.51Z"/>
        <path class="cls-3" d="M259.75,244.84c1.14,1.89,2.28,3.76,3.4,5.61.12.2.08.45-.09.61-7.04,6.38-19.38,6.57-27.17-1.26-7.87-7.91-8.04-20.56-.39-28.59,8.04-8.43,20.55-7.97,27.57-1.68.17.15.21.41.09.61-1.11,1.82-2.23,3.68-3.43,5.65-.15.25-.49.31-.72.12-3.29-2.68-6.88-3.81-11.01-3.09-3.08.54-5.61,2.04-7.6,4.4-4.12,4.9-3.83,12.11.61,16.83,4.68,4.97,11.29,5.25,18.06.65.23-.15.54-.09.68.14Z"/>
        <path class="cls-3" d="M172.03,254.93h-6.42c-.31,0-.55-.25-.55-.55v-30.56c0-.3-.24-.55-.54-.56-3.7-.15-7.21,0-10.87-.1-.28,0-.51-.22-.54-.5-.24-2.22-.1-4.38-.09-6.63,0-.31.25-.56.55-.56h30.27c.31,0,.55.25.55.55v6.58c0,.31-.25.55-.55.55h-10.7c-.31,0-.55.25-.55.55v30.66c0,.31-.25.55-.55.55Z"/>
      </g>
      <g>
        <path class="cls-1" d="M149.68,0C98.13,0,56.34,41.79,56.34,93.33c0,32.15,16.25,60.5,40.99,77.28v-52.72c0-5.52,4.48-10,10-10s10,4.48,10,10v54.81h.03c.27,5.28,4.62,9.49,9.97,9.49s9.71-4.21,9.97-9.49h.03v-71.53c0-5.52,4.48-10,10-10s10,4.48,10,10v71.53h.03c.27,5.28,4.62,9.49,9.97,9.49s9.71-4.21,9.97-9.49h.03v-85.96c0-5.52,4.48-10,10-10s10,4.48,10,10v86.85c27.35-16.27,45.68-46.12,45.68-80.26C243.01,41.79,201.22,0,149.68,0Z"/>
        <g class="cls-4">
          <path class="cls-2" d="M206.94,84.19c16.12-22.74,8.59-53.63-60.23-65.71v25.49s60.23,7.96,60.23,40.22Z"/>
          <path class="cls-2" d="M137.33,105.48v-4.39c0-5.52,4.48-10,10-10h0c5.52,0,10,4.48,10,10v8.37c4.75.91,12.15,2.59,20,5.32v-25.63c-7.31-2.34-15.71-4.39-25.31-6.08,0,0-60.23-7.96-60.23-40.22-14.89,21-9.6,48.97,45.54,62.63Z"/>
          <path class="cls-2" d="M97.33,119.43c-3.43-4.44-5.54-9.63-5.54-15.66-9.85,13.9-10.87,30.84,5.54,44.67v-29.01Z"/>
          <path class="cls-2" d="M197.33,97.67v26.83c8.57,5.91,14.92,13.82,14.92,24.29,11.45-16.15,10.96-36.4-14.92-51.12Z"/>
          <path class="cls-2" d="M137.33,165.33v-24.36c-6.02-1.56-13.17-3.82-20-6.96v26c5.79,2.37,12.45,4.52,20.06,6.41-.04-.35-.06-.71-.06-1.08Z"/>
        </g>
      </g>
    </g>
  </g>
</svg>