<?xml version="1.0" encoding="UTF-8"?>
<svg id="_레이어_2" data-name="레이어 2" xmlns="http://www.w3.org/2000/svg" viewBox="0 0 48.02 20.98">
  <defs>
    <style>
      .cls-1 {
        fill: #fff;
        stroke-width: 0px;
      }
    </style>
  </defs>
  <g id="_레이어_1-2" data-name="레이어 1">
    <path class="cls-1" d="M47.98,10.09c-.03-1.59-.75-3.1-1.94-3.75-.4-.22-7.07-6.12-21.26-6.33-.02,0-.03,0-.04,0-.05,0-.09,0-.14,0-.15,0-.29,0-.45,0,0,0,0,0-.01.01C9.92.21,2.36,6.12,1.97,6.34.78,6.99.06,8.49.03,10.09h-.03v7.42c0,1.92,1.18,3.47,2.64,3.47h7.23c1.01,0,1.83-1.08,1.83-2.41l-.89-5.77c0-1.04,1.44-1.67,2.21-1.87,3.65-.92,5.43-.74,10.82-.74.06,0,.11-.01.17-.02.06,0,.11.02.17.02,5.39,0,7.17-.18,10.82.74.77.19,2.21.83,2.21,1.87l-.89,5.77c0,1.33.82,2.41,1.83,2.41h7.23c1.46,0,2.64-1.55,2.64-3.47v-7.42h-.03Z"/>
  </g>
</svg>