<?xml version="1.0" encoding="UTF-8"?>
<svg id="_레이어_2" data-name="레이어 2" xmlns="http://www.w3.org/2000/svg" xmlns:xlink="http://www.w3.org/1999/xlink" viewBox="0 0 1136.37 182.19">
  <defs>
    <style>
      .cls-1 {
        fill: url(#maingradient);
      }

      .cls-1, .cls-2, .cls-3 {
        stroke-width: 0px;
      }

      .cls-2 {
        fill: #e6e6e6;
      }

      .cls-3 {
        fill: #303;
      }

      .cls-4 {
        opacity: .3;
      }
    </style>
    <linearGradient id="maingradient" x1="0" y1="91.1" x2="186.67" y2="91.1" gradientUnits="userSpaceOnUse">
      <stop offset="0" stop-color="#f60"/>
      <stop offset="1" stop-color="#63c"/>
    </linearGradient>
  </defs>
  <g id="_레이어_1-2" data-name="레이어 1">
    <g>
      <g>
        <path class="cls-3" d="M241.07,151.14h-19.46c-.92,0-1.7-.67-1.86-1.58-.19-1.15-.38-2.27-.38-3.39-.04-26.57,0-53.14-.03-79.71-.01-12.61,4.36-23.15,14.54-30.9,11.77-8.96,27.49-9.72,40.11-2.06,1.54.93,3.02,1.97,4.71,3.11.61.41,1.42.43,2.05.04,1.04-.65,2.09-1.29,3.12-1.96,11.93-7.77,24.39-8.83,37.01-2.15,12.61,6.67,19.08,17.55,19.29,31.75.26,17.87.07,35.75.07,53.62,0,10.22,0,20.44,0,31.08,0,1.04-.85,1.9-1.89,1.9h-19.45c-1.04,0-1.88-.84-1.88-1.88v-6.18c0-24.16.01-48.31-.02-72.47,0-2.65.06-5.36-.43-7.94-1.22-6.41-6.78-10.71-12.96-10.38-6.37.34-11.21,4.98-11.89,11.54-.2,1.91-.1,3.86-.1,5.79,0,24.4,0,48.79,0,73.19v6.45c0,1.04-.85,1.89-1.89,1.89h-19.67c-1.04,0-1.88-.84-1.88-1.88v-6.07c0-24.4,0-48.79-.01-73.19,0-2.41.08-4.86-.31-7.22-1.06-6.35-6.53-10.72-12.81-10.49-6.08.22-10.95,4.53-11.86,10.72-.31,2.13-.21,4.34-.22,6.51-.01,24.4,0,48.79,0,73.19v6.78c0,1.04-.84,1.88-1.88,1.88Z"/>
        <path class="cls-3" d="M554.43,120.79c3.98,9.5,7.79,18.59,11.81,28.17.39.93-.29,1.97-1.3,1.97h-21.69c-.56,0-1.06-.33-1.29-.84-3.18-7.19-6.43-14.52-9.75-22.03-.23-.51-.73-.85-1.29-.85h-25.66c-.78,0-1.41.63-1.41,1.41v20.9c0,.78-.63,1.41-1.41,1.41h-20.39c-.78,0-1.41-.63-1.41-1.41V30.96c.52-.37.89-.86,1.26-.86,16.41-.1,32.85-.68,49.23-.07,19.8.75,36.87,14.48,43.12,33.39,6.24,18.87.24,39.58-15.19,52.36-1.26,1.05-2.56,2.06-4.19,3.34-.5.39-.67,1.08-.43,1.66ZM504.22,101.7c0,.78.63,1.4,1.4,1.4,10.04.08,19.91,1.25,29.62-1,10.45-2.42,17.97-12.74,17.97-23.57,0-11.18-7.81-22.38-18.51-23.73-9.43-1.19-19.12-.35-29.08-.27-.77,0-1.4.63-1.4,1.4v45.76Z"/>
        <path class="cls-3" d="M913.05,91.92c-.45,32.39-25.86,62.08-62.74,61.86-38.28-.23-62.95-31.94-62.31-63.81.7-34.54,29.19-62.03,63.89-61.57,33.88.44,61.66,29.3,61.15,63.52ZM850.15,129.86c17.82,1.32,39.26-13.96,39.57-38.4.27-21.41-17.1-39.05-38.78-39.52-21.25-.46-39.35,17.3-39.47,38.71-.12,21.8,16.97,39.13,38.67,39.21Z"/>
        <path class="cls-3" d="M456.45,151.12h-20.42c-.66,0-1.2-.54-1.2-1.2v-21.74c0-.65-.53-1.19-1.18-1.2-15.82-.36-31.07-.13-46.96-.15-.66,0-1.21.54-1.21,1.2v21.57c0,.66-.54,1.2-1.2,1.2h-20.97c-.58,0-1.07-.41-1.18-.97-.18-.94-.38-1.94-.39-2.93-.04-22.93-.28-45.86.04-68.79.3-21.41,12.74-38.33,32.03-45.16,30.83-10.91,63.22,12.2,64.08,44.9.63,23.72.04,47.48,0,71.22,0,.32-.13.65-.33,1.23-.17.49-.62.82-1.14.82ZM434.54,101.52c.01-7.52.15-14.69.02-21.81-.35-17.93-18.47-30.57-35.01-23.64-7.37,3.09-12.81,9.41-13.78,17.64-1.07,9.04-.29,18.3-.22,27.82,0,.66.53,1.19,1.19,1.19h46.6c.66,0,1.2-.54,1.2-1.2Z"/>
        <path class="cls-3" d="M593.39,149.53v-20.38c0-.87.68-1.58,1.54-1.63,1.69-.11,3.44-.23,5.19-.23,14.47-.03,28.95,0,43.42-.04,2.4,0,4.88,0,7.18-.56,4.57-1.13,8.17-5.77,8.5-10.63.37-5.33-1.8-9.58-6.57-11.89-2.49-1.21-5.53-1.68-8.34-1.77-7.47-.24-14.96-.01-22.43-.1-17.66-.21-32.65-13.26-35.11-30.47-2.56-17.88,7.92-34.96,24.85-40.12,3.42-1.04,7.09-1.73,10.65-1.77,17.13-.18,34.26-.09,51.39-.06.76,0,1.51.09,2.37.2s1.45.8,1.45,1.63v20.43c0,.87-.68,1.59-1.56,1.63-1.74.09-3.51.2-5.28.2-15.2.03-30.4-.02-45.6.03-9.82.03-15.35,4.61-15.21,12.42.14,7.76,5.85,12.43,15.43,12.51,7.48.06,14.96-.09,22.44.04,17.69.32,32.62,13.64,34.71,30.85,2.29,18.78-8.96,35.77-26.69,40.17-2.79.69-5.69,1.33-8.54,1.35-16.89.12-33.77.06-50.66.04-.57,0-1.14-.1-1.8-.22-.78-.14-1.35-.82-1.35-1.61Z"/>
        <path class="cls-3" d="M1041.77,149.44V31.68c0-.75.53-1.39,1.27-1.54.68-.14,1.27-.25,1.85-.25,5.8-.04,11.59-.02,18.14-.02.86,0,1.58.7,1.58,1.56v58.64c.56.19.54.18,1.1.37,14.67-19.66,29.34-39.31,44.05-59.02.62-.83,1.59-1.32,2.63-1.32h21.78c1.3,0,2.04,1.5,1.26,2.54-12.32,16.48-24.22,32.41-36.17,48.4,12.35,22.67,24.49,44.96,36.91,67.76.57,1.05-.19,2.35-1.39,2.35h-22.4c-.95,0-1.82-.52-2.27-1.35-8.06-14.77-16.13-29.56-24.7-45.27-.7-1.29-2.5-1.43-3.4-.28-2.85,3.68-5.45,7.01-7.99,10.37-2.82,3.73-5.58,7.51-8.67,11.68-.49.67-.76,1.48-.76,2.31v20.83c0,.86-.7,1.56-1.56,1.56h-19.69c-.86,0-1.56-.7-1.56-1.56Z"/>
        <path class="cls-3" d="M1015.06,120.28c3.5,5.78,6.97,11.52,10.41,17.19.36.6.26,1.38-.26,1.85-21.57,19.55-59.36,20.14-83.24-3.87-24.1-24.23-24.62-62.99-1.18-87.57,24.63-25.83,62.95-24.43,84.46-5.14.53.47.63,1.26.27,1.86-3.39,5.57-6.84,11.26-10.51,17.29-.47.77-1.5.94-2.2.37-10.07-8.2-21.08-11.67-33.74-9.47-9.44,1.64-17.19,6.24-23.28,13.49-12.62,15.01-11.74,37.1,1.86,51.56,14.32,15.23,34.59,16.07,55.32,2,.7-.47,1.65-.28,2.09.44Z"/>
        <path class="cls-3" d="M746.33,151.19h-19.66c-.94,0-1.7-.76-1.7-1.7V55.87c0-.91-.73-1.67-1.64-1.71-11.33-.46-22.1.03-33.31-.3-.85-.02-1.57-.68-1.66-1.52-.73-6.81-.29-13.41-.28-20.32,0-.94.76-1.7,1.7-1.7h92.72c.94,0,1.7.76,1.7,1.7v20.15c0,.94-.76,1.7-1.7,1.7h-32.76c-.94,0-1.7.76-1.7,1.7v93.93c0,.94-.76,1.7-1.7,1.7Z"/>
      </g>
      <g>
        <path class="cls-1" d="M93.33,0C41.79,0,0,41.79,0,93.33c0,32.15,16.25,60.5,40.99,77.28v-52.72c0-5.52,4.48-10,10-10s10,4.48,10,10v54.81h.03c.27,5.28,4.62,9.49,9.97,9.49s9.71-4.21,9.97-9.49h.03v-71.53c0-5.52,4.48-10,10-10s10,4.48,10,10v71.53h.03c.27,5.28,4.62,9.49,9.97,9.49s9.71-4.21,9.97-9.49h.03v-85.96c0-5.52,4.48-10,10-10s10,4.48,10,10v86.85c27.35-16.27,45.68-46.12,45.68-80.26C186.67,41.79,144.88,0,93.33,0Z"/>
        <g class="cls-4">
          <path class="cls-2" d="M150.6,84.19c16.12-22.74,8.59-53.63-60.23-65.71v25.49s60.23,7.96,60.23,40.22Z"/>
          <path class="cls-2" d="M80.99,105.48v-4.39c0-5.52,4.48-10,10-10h0c5.52,0,10,4.48,10,10v8.37c4.75.91,12.15,2.59,20,5.32v-25.63c-7.31-2.34-15.71-4.39-25.31-6.08,0,0-60.23-7.96-60.23-40.22-14.89,21-9.6,48.97,45.54,62.63Z"/>
          <path class="cls-2" d="M40.99,119.43c-3.43-4.44-5.54-9.63-5.54-15.66-9.85,13.9-10.87,30.84,5.54,44.67v-29.01Z"/>
          <path class="cls-2" d="M140.99,97.67v26.83c8.57,5.91,14.92,13.82,14.92,24.29,11.45-16.15,10.96-36.4-14.92-51.12Z"/>
          <path class="cls-2" d="M80.99,165.33v-24.36c-6.02-1.56-13.17-3.82-20-6.96v26c5.79,2.37,12.45,4.52,20.06,6.41-.04-.35-.06-.71-.06-1.08Z"/>
        </g>
      </g>
    </g>
  </g>
</svg>