<?xml version="1.0" encoding="UTF-8"?>
<svg id="_레이어_2" data-name="레이어 2" xmlns="http://www.w3.org/2000/svg" viewBox="0 0 37.96 25.79">
  <defs>
    <style>
      .cls-1 {
        fill: #fff;
        stroke-width: 0px;
      }
    </style>
  </defs>
  <g id="_레이어_1-2" data-name="레이어 1">
    <path class="cls-1" d="M32.51,0H5.45C2.44,0,0,2.44,0,5.45v14.9c0,3.01,2.44,5.45,5.45,5.45h27.06c3.01,0,5.45-2.44,5.45-5.45V5.45c0-3.01-2.44-5.45-5.45-5.45ZM33.66,7.38l-13.63,8.4s-.03.01-.04.02c-.11.06-.23.11-.34.15-.05.02-.1.04-.15.06-.15.04-.31.06-.47.06-.01,0-.03,0-.04,0,0,0,0,0,0,0s0,0,0,0c-.01,0-.03,0-.04,0-.16,0-.32-.02-.47-.06-.05-.01-.1-.04-.15-.06-.12-.04-.24-.09-.34-.15-.01,0-.03-.01-.04-.02L4.3,7.38c-.94-.58-1.23-1.81-.65-2.75s1.81-1.23,2.75-.65l12.58,7.75,12.58-7.75c.94-.58,2.17-.29,2.75.65.58.94.29,2.17-.65,2.75Z"/>
  </g>
</svg>